<?xml version="1.0" encoding="utf-8"?>
<!-- Generator: Adobe Illustrator 23.0.3, SVG Export Plug-In . SVG Version: 6.00 Build 0)  -->
<svg version="1.1" id="Layer_1" xmlns="http://www.w3.org/2000/svg" xmlns:xlink="http://www.w3.org/1999/xlink" x="0px" y="0px"
	 viewBox="0 0 48 48" style="enable-background:new 0 0 48 48;" xml:space="preserve">
<style type="text/css">
	.st0{fill:#38B47B;}
	.st1{fill:#ED2224;}
	.st2{fill:#FCBF95;}
	.st3{fill:#010101;}
	.st4{fill:#373837;}
	.st5{fill:#FEBF10;}
	.st6{fill:#F6851F;}
	.st7{fill:#D6E5E5;}
	.st8{fill:#F3AD20;}
	.st9{fill:#16B7B8;}
	.st10{fill:#74CCCF;}
	.st11{fill:none;}
	.st12{opacity:5.000000e-02;enable-background:new    ;}
	.st13{opacity:7.000000e-02;enable-background:new    ;}
</style>
<g>
	<g>
		<path class="st8" d="M19.5,6.8c-5.3,1.5-10,5.4-12.4,10.3c-2.4,5-2.6,11-0.5,16.1c0.9,2.1,2.2,4.2,4.2,5.4c2,1.3,4.4,1.6,6.7,1.8
			c3.5,0.3,7,0.5,10.5,0.4c2.1,0,4.3-0.2,6.3-1c3.2-1.3,5.6-4.1,6.9-7.3c1.3-3.2,1.5-6.7,1.2-10.2c-0.2-2.7-0.7-5.3-1.7-7.8
			S38.1,10,36,8.5c-2.3-1.6-5-2.3-7.8-2.5S19.5,6.8,19.5,6.8z"/>
		<path class="st3" d="M26.2,41.4c-2.9,0-5.8-0.1-8.7-0.4c-2.3-0.2-4.8-0.6-7-1.9c-1.8-1.2-3.3-3.1-4.4-5.7C4,28.2,4.2,22,6.7,16.9
			c2.5-5.1,7.2-9.1,12.7-10.6c0,0,0,0,0,0c0.2,0,6-1.1,8.8-0.9c3.2,0.2,5.9,1.1,8.1,2.6c2.1,1.5,3.8,3.7,5,6.5
			c0.9,2.2,1.5,4.8,1.7,7.9c0.3,4.1-0.1,7.5-1.2,10.4c-1.4,3.6-4,6.4-7.1,7.6c-2.1,0.8-4.5,0.9-6.5,1C27.4,41.4,26.8,41.4,26.2,41.4
			z M19.6,7.3c-5.2,1.5-9.7,5.2-12,10.1c-2.4,4.9-2.5,10.7-0.5,15.7c1,2.4,2.3,4.1,4,5.2c1.9,1.2,4.4,1.6,6.5,1.8
			c3.4,0.3,6.9,0.5,10.4,0.4c1.9,0,4.2-0.1,6.2-0.9c2.9-1.1,5.3-3.7,6.6-7c1.1-2.8,1.5-6,1.2-9.9c-0.2-3-0.8-5.5-1.6-7.6
			c-1.1-2.6-2.7-4.6-4.6-6c-2-1.4-4.5-2.2-7.6-2.4C25.5,6.2,20,7.2,19.6,7.3z"/>
	</g>
	<g>
		<path class="st9" d="M12.3,14.7c-2.2,2.5-3.5,5.7-3.7,9C8.5,27.1,9.5,30.7,12,33c1.4,1.3,3.2,2.1,5,2.8c3.9,1.5,8,2.2,12.2,2.2
			c1.8,0,3.7-0.2,5.1-1.2c1.2-0.9,1.9-2.3,2.5-3.6c1.4-3.2,2.3-6.7,2.2-10.2c-0.2-3.5-1.5-7-4.1-9.3c-1.8-1.6-4.2-2.5-6.5-3
			s-4.8-1-7.2-0.7C18.5,10.4,14.5,12.2,12.3,14.7z"/>
	</g>
	<g>
		<path class="st10" d="M38.9,24.9c0-0.3,0-1.2,0-1.5c0-4.5-6.3-3.4-10-4.8c-5-1.8-6.8-4.1-8.4-7.5L20,10.6c-0.4,0.2-2.8,0.8-3.2,1
			c0.1,3.8-2,19.3,1.2,18.6c4.2-0.9,8.5-0.2,10.2,3.4c1,2.1,1.8,2.6,1.4,4.4C35.3,36.1,38.9,31.7,38.9,24.9z"/>
	</g>
	<g>
		<path class="st3" d="M29.2,38.5c-4.2,0-8.4-0.8-12.4-2.2c-1.6-0.6-3.5-1.4-5.1-2.9c-2.4-2.2-3.7-5.8-3.5-9.6
			c0.2-3.4,1.5-6.7,3.8-9.3l0,0c2.2-2.6,6.3-4.5,9-4.9c2.5-0.4,4.9,0.1,7.3,0.6c2.8,0.6,5.1,1.6,6.8,3.2c2.6,2.2,4.1,5.8,4.3,9.7
			c0.1,3.2-0.6,6.6-2.2,10.4c-0.6,1.4-1.3,2.9-2.6,3.8C33,38.4,30.9,38.5,29.2,38.5z M12.7,15c-2.1,2.4-3.4,5.5-3.6,8.7
			c-0.2,3.5,1,6.8,3.2,8.8c1.5,1.4,3.3,2.2,4.8,2.7c3.9,1.4,7.9,2.2,12,2.2c1.6,0,3.5-0.1,4.8-1.1c1.1-0.8,1.7-2.1,2.3-3.4
			c1.6-3.7,2.3-6.9,2.1-9.9c-0.2-3.6-1.6-6.9-4-9c-1.6-1.4-3.7-2.4-6.3-2.9c-2.4-0.5-4.8-1-7.1-0.7C18.6,10.9,14.7,12.7,12.7,15
			L12.7,15z"/>
	</g>
	<g>
		<path class="st11" d="M24,41c-8.8,0-16-7.2-16-16S15.2,9,24,9s16,7.2,16,16S32.8,41,24,41z"/>
	</g>
	<g class="st12">
		<path class="st3" d="M18,43c1.9,0.6,3.9,1,6,1s4.1-0.4,6-1H18z"/>
	</g>
	<g class="st13">
		<path class="st3" d="M19.7,43.5c1.4,0.3,2.8,0.5,4.3,0.5s2.9-0.2,4.3-0.5H19.7z"/>
	</g>
	<g>
		<path class="st3" d="M38.3,21.5c0,0-0.1,0-0.1,0l-3.5-0.8c-2.3-0.5-4.2-1.1-5.9-1.7c-4.2-1.6-6-3.7-7.6-5.8
			c-0.6-0.7-1.2-1.4-1.8-2.1c-0.2-0.2-0.2-0.5,0-0.7c0.2-0.2,0.5-0.2,0.7,0c0.7,0.7,1.3,1.4,1.9,2.2c1.7,2,3.3,3.9,7.2,5.5
			c1.7,0.7,3.5,1.2,5.8,1.7l3.5,0.8c0.3,0.1,0.4,0.3,0.4,0.6C38.7,21.3,38.5,21.5,38.3,21.5z"/>
	</g>
	<g>
		<path class="st3" d="M29.4,38.1C29.4,38.1,29.4,38.1,29.4,38.1c-0.3,0-0.5-0.2-0.5-0.5c0-2-1-4-2.6-5.2c-1.1-0.8-2.5-1.3-4.2-1.6
			c-1.5-0.2-3.1-0.1-4.7-0.1c-0.3,0-0.5-0.2-0.5-0.5c0-0.3,0.2-0.5,0.5-0.5c1.6-0.1,3.2-0.1,4.8,0.1c1.9,0.2,3.4,0.8,4.6,1.8
			c1.9,1.4,3,3.7,3,6.1C29.9,37.9,29.7,38.1,29.4,38.1z"/>
	</g>
	<g>
		<path class="st8" d="M7,3.2c1.6,1,2.6,1.7,3.1,3.5s0.6,3.7,0.6,5.6c0.1,8.4-0.3,16.7-1.3,25C9.1,40,8.6,42.8,7,44.9
			c7.9-1.8,16.2-2.3,24.3-1.5c1.2,0.1,2.4,0.2,3.4-0.3c1.6-0.7,2.2-2.6,2.7-4.2C31,39,24.6,39,18.3,39.1C17.8,27.4,17.4,16.8,17,5.2
			c0-0.6-0.1-1.3-0.6-1.7c-0.4-0.3-0.9-0.4-1.4-0.4C12.7,3,7,3.2,7,3.2z"/>
		<path class="st3" d="M7,45.4c-0.2,0-0.3-0.1-0.4-0.2c-0.1-0.2-0.1-0.4,0-0.6c1.6-2,2-4.6,2.3-7.4c1-8.2,1.5-16.6,1.3-24.9
			c0-1.9-0.1-3.7-0.6-5.4C9.2,5.3,8.3,4.6,6.7,3.6C6.6,3.5,6.5,3.3,6.5,3.1C6.6,2.9,6.8,2.7,7,2.7c0.2,0,5.7-0.2,8.1-0.2
			c0.5,0,1.2,0,1.7,0.5c0.6,0.5,0.7,1.4,0.7,2.1c0.2,5.9,0.4,11.4,0.6,17c0.2,5.4,0.4,10.7,0.6,16.3l18.6-0.1c0.2,0,0.3,0.1,0.4,0.2
			c0.1,0.1,0.1,0.3,0.1,0.4c-0.5,1.8-1.2,3.7-3,4.6c-1.2,0.5-2.5,0.4-3.6,0.3c-8.1-0.8-16.3-0.3-24.2,1.5C7,45.4,7,45.4,7,45.4z
			 M8.6,3.7c1,0.7,1.7,1.5,2.1,2.9c0.5,1.8,0.6,3.7,0.6,5.7c0.1,8.3-0.3,16.8-1.3,25.1c-0.3,2.3-0.7,4.8-1.8,6.8
			c7.6-1.6,15.5-2,23.2-1.2c1.1,0.1,2.2,0.2,3.2-0.2c1.2-0.6,1.8-1.9,2.2-3.3l-18.4,0.1c0,0,0,0,0,0c-0.3,0-0.5-0.2-0.5-0.5
			c-0.2-5.8-0.4-11.3-0.6-16.8c-0.2-5.6-0.4-11.2-0.6-17c0-0.6-0.1-1.1-0.4-1.4c-0.2-0.2-0.7-0.2-1.1-0.3C13.5,3.5,10.4,3.6,8.6,3.7
			z"/>
	</g>
</g>
</svg>